# xmcd
#
# Track frame offsets:
#	150
#	12665
#	24732
#	42917
#	56590
#	68872
#	84562
#	96750
#	106962
#	121197
#	130455
#	143230
#	159047
#
# Disc length: 2283
#
# Revision: 3
# Processed by: cddbd v1.5.1PL0 Copyright (c) Steve Scherf et al.
# Submitted via: EasyCDDAExtractor 5.0.5.1
# Normalized: r2:DSETVAR1
#
DISCID=ac08e90d
DTITLE=Various Artist - The Blues CollectionDisk 5
DYEAR=1996
DGENRE=Blues
TTITLE0=John Lee Hooker - Crawlin' Black Spider
TTITLE1=Louis Jordan - You Gonna Miss Me
TTITLE2=John Lee Hooker - House Rent Boogie
TTITLE3=Louis Jordan - I Got The Walkin' Blues
TTITLE4=Roy Milton - Early In The Morning
TTITLE5=Joe Liggins - Goin' Back To L.A.
TTITLE6=John Lee Hooker - I'm Mad Again
TTITLE7=John Lee Hooker - I Wanna Walk
TTITLE8=Ray Charles - Walkin' And Talkin'
TTITLE9=Billie Holiday - When Your Lover Has Gone
TTITLE10=Richard Berry - Have Love Will Travel
TTITLE11=Ray Charles - I Found My Baby There
TTITLE12=Bo Diddley - Can I Go Home With You
EXTD=
EXTT0=
EXTT1=
EXTT2=
EXTT3=
EXTT4=
EXTT5=
EXTT6=
EXTT7=
EXTT8=
EXTT9=
EXTT10=
EXTT11=
EXTT12=
PLAYORDER=
